<?xml version="1.0" standalone="no"?>
<!DOCTYPE svg PUBLIC "-//W3C//DTD SVG 20010904//EN"
 "http://www.w3.org/TR/2001/REC-SVG-20010904/DTD/svg10.dtd">
<svg version="1.0" xmlns="http://www.w3.org/2000/svg"
 width="700.000000pt" height="700.000000pt" viewBox="0 0 700.000000 700.000000"
 preserveAspectRatio="xMidYMid meet">
<metadata>
Created by potrace 1.14, written by Peter Selinger 2001-2017
</metadata>
<g transform="translate(0.000000,700.000000) scale(0.100000,-0.100000)"
fill="#000000" stroke="none">
<path d="M4987 6206 c-21 -8 -46 -21 -56 -30 -15 -14 -19 -14 -32 0 -14 13
-183 -163 -1650 -1733 -899 -961 -1652 -1767 -1673 -1791 -31 -34 -36 -45 -27
-56 10 -12 8 -15 -10 -18 -20 -3 -37 -49 -177 -507 -114 -371 -151 -505 -142
-511 9 -6 9 -13 1 -28 -10 -19 -4 -24 72 -65 515 -279 1000 -430 1332 -414
269 13 573 115 805 270 160 106 422 328 835 707 223 204 373 333 436 375 230
155 525 249 722 231 167 -15 558 -89 722 -136 38 -11 75 -20 81 -20 12 0 49
118 40 127 -14 14 -383 96 -576 129 -329 54 -462 48 -690 -31 -133 -46 -272
-115 -384 -190 -53 -36 -232 -191 -454 -394 -547 -500 -765 -675 -967 -775
-126 -63 -224 -97 -363 -129 -80 -18 -127 -22 -267 -21 -149 0 -184 4 -288 28
-155 36 -333 93 -488 157 -134 55 -409 188 -409 198 0 6 859 293 912 305 14 3
44 25 65 49 49 56 602 649 617 662 7 6 104 109 216 230 386 414 1353 1450
1439 1540 384 401 1038 1114 1059 1152 20 38 23 57 20 109 -10 157 -180 381
-382 503 -121 72 -264 105 -339 77z m-49 -318 c22 -46 67 -114 98 -151 l57
-69 -50 -51 c-28 -29 -717 -767 -1532 -1640 l-1482 -1588 -42 24 c-23 13 -115
64 -205 112 l-163 88 49 51 c27 28 539 575 1137 1216 598 641 1122 1201 1163
1245 42 44 103 109 137 145 33 36 223 238 421 449 l359 385 6 -67 c4 -50 16
-87 47 -149z m563 5 c13 -17 13 -17 -6 -3 -11 8 -22 16 -24 17 -2 2 0 3 6 3 6
0 17 -8 24 -17z m-174 -387 c39 -20 105 -44 146 -54 l74 -17 -1599 -1710
c-879 -940 -1611 -1723 -1627 -1738 l-28 -28 -117 181 -117 181 48 54 c26 30
720 773 1542 1653 l1494 1599 56 -43 c31 -23 88 -59 128 -78z m-3562 -3041
c275 -149 268 -144 255 -160 -14 -16 -14 -15 127 -232 l92 -142 -367 -122
-366 -122 -15 24 c-27 41 -70 77 -110 91 l-39 13 29 95 c162 528 203 659 208
656 3 -2 87 -47 186 -101z"/>
</g>
</svg>
